<?xml version="1.0" encoding="utf-8" standalone="yes"?>
<?xml-stylesheet href="SVGStyle.css" type="text/css"?>
<svg xmlns="http://www.w3.org/2000/svg" version="1.2" baseProfile="tiny" xml:space="preserve" style="shape-rendering:geometricPrecision; fill-rule:evenodd;" width="12.1mm" height="6.1mm" viewBox="-3.05 -3.05 12.1 6.1">
  <title>DRFSTA01</title>
  <desc>pattern of symbol</desc>
  <metadata>
    <S100SVG xmlns:iho="http://www.iho.int/SVGMetadata">
      <Description publisher="IHB" creationDate="2018-12-18" source="S52Preslib4.0" format="S100SVG" version="0.1" />
    </S100SVG>
  </metadata>
  <rect style="stroke:black;stroke-width:0.32; display:none;" fill="none" x="-3.05" y="3.05" height="6.1" width="12.1" />
  <rect style="stroke:blue; stroke-width:0.32; display:none;" fill="none" x="-3.05" y="-3.05" height="6.1" width="12.1" />
  <circle cx="0" cy="0" r="2.95" style="stroke-linecap:round;stroke-linejoin:round; fill:none; stroke:#C045D1; stroke-width:0.32" />
  <path d=" M 3.3,1.2 L 3.95,1.2 L 4.19,1.45 L 4.19,2.65 L 3.95,2.9 L 3.3,2.9 L 3.3,1.2" style="stroke-linecap:round;stroke-linejoin:round; fill:none; stroke:#C045D1; stroke-width:0.32;" />
  <path d=" M 4.5,1.45 L 4.75,1.2 L 5.15,1.2 L 5.4,1.45" style="stroke-linecap:round;stroke-linejoin:round; fill:none; stroke:#C045D1; stroke-width:0.32;" />
  <path d=" M 4.5,1.45 L 4.5,2.65 L 4.75,2.9 L 5.15,2.9 L 5.4,2.65 L 5.4,2.16 L 4.92,2.16" style="stroke-linecap:round;stroke-linejoin:round; fill:none; stroke:#C045D1;  stroke-width:0.32;" />
  <path d=" M 7.75,1.45 L 7.5,1.2 L 7.1,1.2 L 6.9,1.45 L 6.9,1.85 L 7.1,2.05 L 7.5,2.05 L 7.75,2.3 L 7.75,2.7 L 7.5,2.9 L 7.1,2.9 L 6.9,2.7" style="stroke-linecap:round;stroke-linejoin:round; fill:none; stroke:#C045D1; stroke-width:0.32;" />
  <path d=" M 8.95,1.45 L 8.7,1.2 L 8.3,1.2 L 8.1,1.45 L 8.1,1.85 L 8.3,2.05 L 8.7,2.05 L 8.95,2.3 L 8.95,2.7 L 8.7,2.9 L 8.3,2.9 L 8.1,2.7" style="stroke-linecap:round;stroke-linejoin:round; fill:none; stroke:#C045D1; stroke-width:0.32;" />
  <path d=" M 5.7,2.85 L 5.7,1.2 L 6.6,2.9 L 6.6,1.2" style="stroke-linecap:round;stroke-linejoin:round; fill:none; stroke:#C045D1; stroke-width:0.32;" />
</svg>