<?xml version="1.0" encoding="utf-8" standalone="yes"?>
<?xml-stylesheet href="SVGStyle.css" type="text/css"?>
<svg xmlns="http://www.w3.org/2000/svg" version="1.2" baseProfile="tiny" xml:space="preserve" style="shape-rendering:geometricPrecision; fill-rule:evenodd;" width="13.2mm" height="6.1mm" viewBox="-3.05 -3.05 13.2 6.1">
  <title>ELORAN01</title>
  <desc>pattern of symbol</desc>
  <metadata>
    <S100SVG xmlns:iho="http://www.iho.int/SVGMetadata">
      <Description publisher="IHB" creationDate="2018-12-18" source="S52Preslib4.0" format="S100SVG" version="0.1" />
    </S100SVG>
  </metadata>
  <rect style="stroke:black;stroke-width:0.32; display:none;" fill="none" x="-3.05" y="3.05" height="6.1" width="13.2" />
  <rect style="stroke:blue; stroke-width:0.32; display:none;" fill="none" x="-3.05" y="-3.05" height="6.1" width="13.2" />
  <path d=" M 4.2,1.2 L 3.3,1.2 L 3.3,2.9 L 4.2,2.9" style="stroke-linecap:round;stroke-linejoin:round; fill:none; stroke:#C045D1; stroke-width:0.32;" />
  <path d=" M 8.1,2.95 L 8.1,1.45 L 8.3,1.2 L 8.7,1.2 L 8.95,1.45 L 8.95,2.95" style="stroke-linecap:round;stroke-linejoin:round; fill:none; stroke:#C045D1; stroke-width:0.32;" />
  <path d=" M 6.9,2.9 L 6.9,1.2 L 7.5,1.2 L 7.75,1.45 L 7.75,1.75 L 7.5,2 L 6.9,2 L 7.5,2 L 7.75,2.3 L 7.75,2.9" style="stroke-linecap:round;stroke-linejoin:round; fill:none; stroke:#C045D1; stroke-width:0.32;" />
  <path d=" M 5.95,1.2 L 5.7,1.5 L 5.7,2.65 L 5.95,2.9 L 6.35,2.9 L 6.6,2.65 L 6.6,1.5 L 6.35,1.2 L 5.95,1.2" style="stroke-linecap:round;stroke-linejoin:round; fill:none; stroke:#C045D1; stroke-width:0.32;" />
  <path d=" M 4.5,1.2 L 4.5,2.9 L 5.4,2.9" style="stroke-linecap:round;stroke-linejoin:round; fill:none; stroke:#C045D1; stroke-width:0.32;" />
  <path d=" M 8.1,2 L 8.95,2" style="stroke-linecap:round;stroke-linejoin:round; fill:none; stroke:#C045D1; stroke-width:0.32;" />
  <path d=" M 9.25,2.95 L 9.25,1.2 L 10.05,2.95 L 10.05,1.2" style="stroke-linecap:round;stroke-linejoin:round; fill:none; stroke:#C045D1; stroke-width:0.32;" />
  <path d=" M 3.3,2 L 4.15,2" style="stroke-linecap:round;stroke-linejoin:round; fill:none; stroke:#C045D1; stroke-width:0.32;" />
  <circle cx="0" cy="0" r="2.95" style="stroke-linecap:round;stroke-linejoin:round; fill:none; stroke:#C045D1; stroke-width:0.32" />
</svg>